G04*
G04 #@! TF.GenerationSoftware,Altium Limited,Altium Designer,26.1.1 (7)*
G04*
G04 Layer_Color=8421504*
%FSLAX44Y44*%
%MOMM*%
G71*
G04*
G04 #@! TF.SameCoordinates,0D700E3B-5BBB-467B-AAF7-DE4557B223E4*
G04*
G04*
G04 #@! TF.FilePolarity,Positive*
G04*
G01*
G75*
%ADD20R,3.3500X1.2500*%
%ADD21R,3.2500X1.2500*%
%ADD22R,1.3500X1.0000*%
%ADD23R,1.0000X0.9500*%
%ADD24R,0.9500X1.0000*%
%ADD25R,0.6000X1.5200*%
%ADD26R,1.6000X0.7000*%
%ADD27R,1.0200X0.9800*%
%ADD28R,1.2000X1.7000*%
%ADD29O,1.4500X0.4500*%
%ADD30R,1.0000X1.3500*%
G04:AMPARAMS|DCode=31|XSize=0.9mm|YSize=0.85mm|CornerRadius=0.2125mm|HoleSize=0mm|Usage=FLASHONLY|Rotation=180.000|XOffset=0mm|YOffset=0mm|HoleType=Round|Shape=RoundedRectangle|*
%AMROUNDEDRECTD31*
21,1,0.9000,0.4250,0,0,180.0*
21,1,0.4750,0.8500,0,0,180.0*
1,1,0.4250,-0.2375,0.2125*
1,1,0.4250,0.2375,0.2125*
1,1,0.4250,0.2375,-0.2125*
1,1,0.4250,-0.2375,-0.2125*
%
%ADD31ROUNDEDRECTD31*%
G04:AMPARAMS|DCode=32|XSize=0.9mm|YSize=0.85mm|CornerRadius=0.2125mm|HoleSize=0mm|Usage=FLASHONLY|Rotation=270.000|XOffset=0mm|YOffset=0mm|HoleType=Round|Shape=RoundedRectangle|*
%AMROUNDEDRECTD32*
21,1,0.9000,0.4250,0,0,270.0*
21,1,0.4750,0.8500,0,0,270.0*
1,1,0.4250,-0.2125,-0.2375*
1,1,0.4250,-0.2125,0.2375*
1,1,0.4250,0.2125,0.2375*
1,1,0.4250,0.2125,-0.2375*
%
%ADD32ROUNDEDRECTD32*%
%ADD33R,0.4800X0.4000*%
%ADD34R,0.6000X1.0000*%
G04:AMPARAMS|DCode=35|XSize=0.95mm|YSize=1.05mm|CornerRadius=0.2375mm|HoleSize=0mm|Usage=FLASHONLY|Rotation=0.000|XOffset=0mm|YOffset=0mm|HoleType=Round|Shape=RoundedRectangle|*
%AMROUNDEDRECTD35*
21,1,0.9500,0.5750,0,0,0.0*
21,1,0.4750,1.0500,0,0,0.0*
1,1,0.4750,0.2375,-0.2875*
1,1,0.4750,-0.2375,-0.2875*
1,1,0.4750,-0.2375,0.2875*
1,1,0.4750,0.2375,0.2875*
%
%ADD35ROUNDEDRECTD35*%
D20*
X1155446Y719800D02*
D03*
X881126Y279944D02*
D03*
X925322Y718784D02*
D03*
X1159764Y278928D02*
D03*
Y219928D02*
D03*
X881126Y220944D02*
D03*
X925322Y777784D02*
D03*
X1155446Y778800D02*
D03*
D21*
X1112012Y719800D02*
D03*
X921512Y279690D02*
D03*
X881126Y718784D02*
D03*
X1202182Y278928D02*
D03*
Y219928D02*
D03*
X1112012Y778800D02*
D03*
X881126Y777784D02*
D03*
X921512Y220690D02*
D03*
D22*
X1079500Y723790D02*
D03*
X849630Y277478D02*
D03*
X825500Y761602D02*
D03*
X849630Y259478D02*
D03*
X1117346Y254762D02*
D03*
X825500Y743602D02*
D03*
X1079500Y741790D02*
D03*
X1117346Y272762D02*
D03*
D23*
X938410Y815594D02*
D03*
Y831850D02*
D03*
X1200030Y815340D02*
D03*
Y831596D02*
D03*
X1207904Y103886D02*
D03*
X1207904Y87884D02*
D03*
X925202Y103886D02*
D03*
X925202Y87630D02*
D03*
X480194Y369062D02*
D03*
X1185030Y831596D02*
D03*
Y815340D02*
D03*
X923410Y831850D02*
D03*
Y815594D02*
D03*
X465194Y369062D02*
D03*
X910202Y87630D02*
D03*
X1192904Y87884D02*
D03*
X910202Y103886D02*
D03*
X1192904D02*
D03*
D24*
X854202Y190380D02*
D03*
X870204D02*
D03*
X768350Y761224D02*
D03*
X785368D02*
D03*
X773938Y227718D02*
D03*
X757936D02*
D03*
X1135634Y190888D02*
D03*
X1151636D02*
D03*
X1046480Y227464D02*
D03*
X1062482D02*
D03*
X1029970Y761224D02*
D03*
X1047750Y761224D02*
D03*
X773938Y212718D02*
D03*
X757936D02*
D03*
X854202Y175380D02*
D03*
X870204D02*
D03*
X705104Y109925D02*
D03*
X1128268Y888612D02*
D03*
X1144524Y888612D02*
D03*
X884936Y887596D02*
D03*
X868680Y887596D02*
D03*
X1112012Y873880D02*
D03*
X1095756D02*
D03*
X851408Y887596D02*
D03*
X835406D02*
D03*
X970026Y124925D02*
D03*
X986790Y124925D02*
D03*
X474218Y638168D02*
D03*
X689356Y124925D02*
D03*
X705104D02*
D03*
X380492Y639946D02*
D03*
X175768Y729876D02*
D03*
X376174Y370452D02*
D03*
X170942Y602114D02*
D03*
X179324Y418726D02*
D03*
X168910Y258960D02*
D03*
X1047750Y776224D02*
D03*
X1029970Y776224D02*
D03*
X1095756Y888880D02*
D03*
X768350Y776224D02*
D03*
X785368D02*
D03*
X376174Y385452D02*
D03*
X474218Y653168D02*
D03*
X380492Y654946D02*
D03*
X884936Y902596D02*
D03*
X1128268Y903612D02*
D03*
X1135634Y175888D02*
D03*
X1151636D02*
D03*
X1046480Y212464D02*
D03*
X1062482D02*
D03*
X986790Y109925D02*
D03*
X1112012Y888880D02*
D03*
X1144524Y903612D02*
D03*
X868680Y902596D02*
D03*
X851408D02*
D03*
X970026Y109925D02*
D03*
X689356Y109925D02*
D03*
X175768Y714876D02*
D03*
X170942Y587114D02*
D03*
X179324Y403726D02*
D03*
X168910Y243960D02*
D03*
X835406Y902596D02*
D03*
D25*
X868426Y818286D02*
D03*
X924052Y172975D02*
D03*
X1206754Y172975D02*
D03*
X1129792Y818286D02*
D03*
X1194054Y172975D02*
D03*
X885952Y172975D02*
D03*
X1129792Y865886D02*
D03*
X868426D02*
D03*
X1206754Y125375D02*
D03*
X924052Y125375D02*
D03*
X1167892Y818286D02*
D03*
X906526D02*
D03*
X1168654Y172975D02*
D03*
X1167892Y865886D02*
D03*
X1155192D02*
D03*
X893826D02*
D03*
X906526D02*
D03*
X1181354Y125375D02*
D03*
X1168654D02*
D03*
X885952Y125375D02*
D03*
X898652D02*
D03*
X1142492Y865886D02*
D03*
X881126D02*
D03*
X1194054Y125375D02*
D03*
X911352Y125375D02*
D03*
X898652Y172975D02*
D03*
X911352D02*
D03*
X893826Y818286D02*
D03*
X881126D02*
D03*
X1181354Y172975D02*
D03*
X1142492Y818286D02*
D03*
X1155192D02*
D03*
D26*
X812734Y816356D02*
D03*
X728538Y173482D02*
D03*
X1009528Y173051D02*
D03*
X1073150Y816356D02*
D03*
X728538Y122682D02*
D03*
X832038Y173482D02*
D03*
Y97282D02*
D03*
X728538D02*
D03*
X1073150Y867156D02*
D03*
X812734D02*
D03*
X1009528Y122251D02*
D03*
X969650Y892556D02*
D03*
Y816356D02*
D03*
X1073150Y892556D02*
D03*
X709234Y816356D02*
D03*
X1009528Y96851D02*
D03*
X1113028D02*
D03*
Y173051D02*
D03*
X812734Y892556D02*
D03*
X709234D02*
D03*
D27*
X705138Y93803D02*
D03*
X1096992Y905510D02*
D03*
X690338Y93803D02*
D03*
X985808Y93803D02*
D03*
X1111792Y905510D02*
D03*
X851188Y919734D02*
D03*
X971008Y93803D02*
D03*
X836388Y919734D02*
D03*
D28*
X351026Y845566D02*
D03*
X319026D02*
D03*
D29*
X470952Y620210D02*
D03*
Y351478D02*
D03*
X380782Y620718D02*
D03*
Y351478D02*
D03*
X470952Y613710D02*
D03*
X321782Y620718D02*
D03*
X411952Y581210D02*
D03*
Y312478D02*
D03*
X321782Y581718D02*
D03*
Y312478D02*
D03*
X470952Y581210D02*
D03*
Y600710D02*
D03*
X411952Y587710D02*
D03*
Y607210D02*
D03*
Y351478D02*
D03*
X470952Y331978D02*
D03*
Y312478D02*
D03*
X411952Y318978D02*
D03*
Y338478D02*
D03*
X321782Y614218D02*
D03*
Y607718D02*
D03*
Y601218D02*
D03*
Y594718D02*
D03*
Y588218D02*
D03*
X380782Y614218D02*
D03*
Y607718D02*
D03*
Y601218D02*
D03*
Y594718D02*
D03*
Y588218D02*
D03*
Y581718D02*
D03*
X470952Y594210D02*
D03*
Y607210D02*
D03*
X411952Y613710D02*
D03*
Y594210D02*
D03*
X470952Y587710D02*
D03*
X411952Y600710D02*
D03*
X321782Y325478D02*
D03*
X411952Y344978D02*
D03*
Y325478D02*
D03*
X470952Y318978D02*
D03*
X411952Y620210D02*
D03*
X470952Y325478D02*
D03*
Y338478D02*
D03*
Y344978D02*
D03*
X411952Y331978D02*
D03*
X380782Y312478D02*
D03*
Y318978D02*
D03*
Y325478D02*
D03*
Y331978D02*
D03*
Y338478D02*
D03*
Y344978D02*
D03*
X321782Y318978D02*
D03*
Y331978D02*
D03*
Y338478D02*
D03*
Y344978D02*
D03*
Y351478D02*
D03*
D30*
X347074Y889000D02*
D03*
X329074D02*
D03*
X294276Y888746D02*
D03*
X312276D02*
D03*
D31*
X197358Y730380D02*
D03*
X192024Y602872D02*
D03*
X198882Y418976D02*
D03*
X187198Y259464D02*
D03*
X197358Y714880D02*
D03*
X247396Y678812D02*
D03*
Y694312D02*
D03*
X240030Y599824D02*
D03*
X240792Y367160D02*
D03*
X241046Y259966D02*
D03*
X192024Y587372D02*
D03*
X240030Y584324D02*
D03*
X241046Y275466D02*
D03*
X187198Y243964D02*
D03*
X198882Y403476D02*
D03*
X240792Y351660D02*
D03*
D32*
X428882Y640842D02*
D03*
X413382D02*
D03*
X346840D02*
D03*
X331340D02*
D03*
X436502Y370332D02*
D03*
X421002D02*
D03*
X342014Y371094D02*
D03*
X326514D02*
D03*
D33*
X345944Y655828D02*
D03*
X332744D02*
D03*
X435606Y386334D02*
D03*
X413262Y655828D02*
D03*
X422406Y386334D02*
D03*
X426462Y655828D02*
D03*
X341372Y386080D02*
D03*
X328172D02*
D03*
D34*
X563372Y634322D02*
D03*
Y581322D02*
D03*
X545872D02*
D03*
X580872Y634322D02*
D03*
X545872D02*
D03*
X580872Y581322D02*
D03*
Y351620D02*
D03*
X545872Y298620D02*
D03*
X580872D02*
D03*
X545872Y351620D02*
D03*
X563372Y298620D02*
D03*
Y351620D02*
D03*
D35*
X446278Y654696D02*
D03*
X451104Y402612D02*
D03*
X363982Y654696D02*
D03*
X358902Y385456D02*
D03*
X451104Y388112D02*
D03*
X363982Y640196D02*
D03*
X358902Y370956D02*
D03*
X446278Y640196D02*
D03*
M02*
