G04*
G04 #@! TF.GenerationSoftware,Altium Limited,Altium Designer,26.1.1 (7)*
G04*
G04 Layer_Color=16711935*
%FSLAX44Y44*%
%MOMM*%
G71*
G04*
G04 #@! TF.SameCoordinates,0D700E3B-5BBB-467B-AAF7-DE4557B223E4*
G04*
G04*
G04 #@! TF.FilePolarity,Negative*
G04*
G01*
G75*
%ADD52C,2.2032*%
%ADD53C,3.2004*%
%ADD54C,0.3302*%
%ADD55C,2.7432*%
%ADD56C,2.6162*%
%ADD57C,1.7032*%
%ADD58C,1.7272*%
%ADD59C,1.9050*%
%ADD60C,1.2032*%
%ADD61C,0.2032*%
%ADD62C,0.9652*%
%ADD63C,1.4732*%
D52*
X1514750Y510500D02*
D03*
X1334270D02*
D03*
X1424510Y560500D02*
D03*
Y360100D02*
D03*
D53*
X1113802Y371762D02*
D03*
Y621762D02*
D03*
Y481762D02*
D03*
X913802D02*
D03*
D54*
X1013802Y496762D02*
D03*
X886302Y686762D02*
D03*
Y306762D02*
D03*
X1141302D02*
D03*
Y686762D02*
D03*
D55*
X913802Y661762D02*
D03*
X1113802Y331762D02*
D03*
Y661762D02*
D03*
X913802Y331762D02*
D03*
D56*
X1201928Y686308D02*
D03*
X804418Y324358D02*
D03*
X755904Y669544D02*
D03*
X802132Y388112D02*
D03*
X1294892Y257302D02*
D03*
X834390Y672338D02*
D03*
X1300988Y734822D02*
D03*
X1201500Y309500D02*
D03*
X532638Y681990D02*
D03*
X530606Y732790D02*
D03*
X501904Y559054D02*
D03*
X203708Y518922D02*
D03*
Y657098D02*
D03*
X385826Y71628D02*
D03*
X337566D02*
D03*
X289306D02*
D03*
X241046D02*
D03*
X204216Y178816D02*
D03*
X588772Y689610D02*
D03*
X548132Y538988D02*
D03*
X600710Y545592D02*
D03*
X203708Y340614D02*
D03*
X534416Y197358D02*
D03*
X553974Y420116D02*
D03*
X598424Y257810D02*
D03*
X506222Y240284D02*
D03*
X511302Y390144D02*
D03*
X599694Y393446D02*
D03*
D57*
X863094Y568870D02*
D03*
X1165202D02*
D03*
D58*
X1664000Y481590D02*
D03*
Y565410D02*
D03*
D59*
X1721480Y426212D02*
D03*
X1808480D02*
D03*
Y375412D02*
D03*
X1721480D02*
D03*
Y258318D02*
D03*
Y207518D02*
D03*
X1808480D02*
D03*
Y258318D02*
D03*
Y549910D02*
D03*
X1721480D02*
D03*
X1808480Y600710D02*
D03*
X1721480D02*
D03*
X1808480Y718820D02*
D03*
Y769620D02*
D03*
X1721480D02*
D03*
Y718820D02*
D03*
X230510Y810514D02*
D03*
X143510D02*
D03*
X230510Y861314D02*
D03*
X143510D02*
D03*
D60*
X151892Y735584D02*
D03*
Y607568D02*
D03*
Y424180D02*
D03*
Y263906D02*
D03*
Y632968D02*
D03*
X74892Y556768D02*
D03*
Y632968D02*
D03*
X151892Y556768D02*
D03*
Y582168D02*
D03*
Y373380D02*
D03*
Y449580D02*
D03*
X74892Y373380D02*
D03*
Y449580D02*
D03*
X151892Y398780D02*
D03*
Y289306D02*
D03*
X74892Y213106D02*
D03*
Y289306D02*
D03*
X151892Y213106D02*
D03*
Y238506D02*
D03*
Y760984D02*
D03*
X74892Y684784D02*
D03*
Y760984D02*
D03*
X151892Y710184D02*
D03*
Y684784D02*
D03*
D61*
X1013802Y496762D02*
D03*
D62*
X408940Y366522D02*
D03*
X397764Y381254D02*
D03*
X429260Y287274D02*
D03*
X411988Y299974D02*
D03*
X434594Y307848D02*
D03*
X429514Y584454D02*
D03*
X430530Y603758D02*
D03*
X359410Y604774D02*
D03*
X450596Y323088D02*
D03*
X430022Y344932D02*
D03*
X854456Y204470D02*
D03*
X563880Y181610D02*
D03*
X545859Y652005D02*
D03*
X545084Y560832D02*
D03*
X240030Y618236D02*
D03*
X328422Y411988D02*
D03*
X361579Y337357D02*
D03*
X357632Y354076D02*
D03*
X855980Y119126D02*
D03*
X1246632Y141732D02*
D03*
X310642Y392684D02*
D03*
X358648Y415798D02*
D03*
X399288Y633730D02*
D03*
X461010Y652780D02*
D03*
X366014Y682752D02*
D03*
X321310Y653288D02*
D03*
X895858Y918464D02*
D03*
X166878Y571246D02*
D03*
X258826Y594868D02*
D03*
X1177798Y912876D02*
D03*
X1115060Y923544D02*
D03*
X1183652Y865511D02*
D03*
X915416Y918718D02*
D03*
X447040Y683260D02*
D03*
X1139444Y82296D02*
D03*
X970788Y80264D02*
D03*
X871728Y79756D02*
D03*
X689810Y79500D02*
D03*
X451612Y418338D02*
D03*
X404368Y565658D02*
D03*
X319024Y828040D02*
D03*
X262890Y694690D02*
D03*
X321818Y564896D02*
D03*
X164474Y700783D02*
D03*
X240538Y384556D02*
D03*
X321310Y293878D02*
D03*
X241300Y242570D02*
D03*
X166116Y386334D02*
D03*
X168402Y228600D02*
D03*
X351282Y623316D02*
D03*
X396240Y600710D02*
D03*
X564896Y771906D02*
D03*
X608076Y770382D02*
D03*
X1164082Y885952D02*
D03*
X903224Y887476D02*
D03*
X451104Y370078D02*
D03*
X343227Y313315D02*
D03*
X573786Y371348D02*
D03*
X546100Y368554D02*
D03*
X545338Y277876D02*
D03*
X296268Y594718D02*
D03*
D63*
X946912Y799592D02*
D03*
X837438Y809498D02*
D03*
X802894Y759460D02*
D03*
X849630Y240284D02*
D03*
X729488Y231140D02*
D03*
X965454Y173990D02*
D03*
X1120902Y212344D02*
D03*
X1248156Y173990D02*
D03*
X1097280Y251968D02*
D03*
X1010920Y230378D02*
D03*
X1204722Y799338D02*
D03*
X1095756Y808482D02*
D03*
X1064006Y758698D02*
D03*
X294894Y911352D02*
D03*
M02*
