G04*
G04 #@! TF.GenerationSoftware,Altium Limited,Altium Designer,26.1.1 (7)*
G04*
G04 Layer_Physical_Order=2*
G04 Layer_Color=16711680*
%FSLAX44Y44*%
%MOMM*%
G71*
G04*
G04 #@! TF.SameCoordinates,0D700E3B-5BBB-467B-AAF7-DE4557B223E4*
G04*
G04*
G04 #@! TF.FilePolarity,Positive*
G04*
G01*
G75*
%ADD10C,0.2540*%
%ADD59C,1.9050*%
%ADD68C,2.0000*%
%ADD69C,2.9972*%
%ADD70C,0.1270*%
%ADD71C,2.5400*%
%ADD72C,2.4130*%
%ADD73C,1.5000*%
%ADD74C,1.5240*%
%ADD75C,1.0000*%
%ADD76C,0.7620*%
%ADD77C,1.2700*%
G36*
X1221232Y947674D02*
X1221232Y947674D01*
X1221232D01*
X1223565Y947394D01*
X1223973Y947313D01*
X1225684Y946604D01*
X1227223Y945576D01*
X1228532Y944267D01*
X1229560Y942728D01*
X1230269Y941017D01*
X1230630Y939202D01*
X1230630Y938276D01*
X1230630Y861822D01*
X1230630Y861822D01*
Y860761D01*
X1229818Y858801D01*
X1228317Y857300D01*
X1226357Y856488D01*
X1182173D01*
X1179933Y857416D01*
X1178218Y859131D01*
X1177290Y861371D01*
Y862584D01*
Y900430D01*
X1177290Y900430D01*
X1177290Y900430D01*
X1177290Y900432D01*
X1177163Y901718D01*
X1176749Y902718D01*
X1176177Y904099D01*
X1174355Y905921D01*
X1171974Y906907D01*
X1170686Y907034D01*
X498094Y907034D01*
X498094Y907034D01*
X496650Y906963D01*
X493817Y906399D01*
X491149Y905294D01*
X488748Y903690D01*
X486706Y901648D01*
X485102Y899247D01*
X483996Y896578D01*
X483433Y893746D01*
X483362Y892302D01*
Y630493D01*
X448564D01*
X447276Y630236D01*
X446183Y629507D01*
X437525Y620849D01*
X436796Y619756D01*
X436539Y618468D01*
Y614274D01*
X431814Y609549D01*
X431692Y609600D01*
X429368D01*
X427221Y608711D01*
X425577Y607067D01*
X424688Y604920D01*
Y602596D01*
X425577Y600449D01*
X427221Y598805D01*
X429368Y597916D01*
X431692D01*
X433839Y598805D01*
X435483Y600449D01*
X436372Y602596D01*
Y604585D01*
X442287Y610499D01*
X443016Y611592D01*
X443273Y612880D01*
Y617074D01*
X449958Y623759D01*
X483362D01*
Y590869D01*
X466865D01*
X465576Y590612D01*
X464484Y589883D01*
X462422Y587821D01*
X434409D01*
X432823Y589407D01*
X430676Y590296D01*
X428352D01*
X426205Y589407D01*
X424561Y587763D01*
X423672Y585616D01*
Y583292D01*
X424561Y581145D01*
X426205Y579501D01*
X428352Y578612D01*
X430676D01*
X432823Y579501D01*
X434409Y581087D01*
X463817D01*
X465105Y581344D01*
X466197Y582073D01*
X468259Y584135D01*
X483362D01*
Y371921D01*
X474218D01*
X472930Y371664D01*
X471837Y370935D01*
X441581Y340679D01*
X439036D01*
X435864Y343851D01*
Y346094D01*
X434975Y348241D01*
X433331Y349885D01*
X431184Y350774D01*
X428860D01*
X426713Y349885D01*
X425069Y348241D01*
X424180Y346094D01*
Y343770D01*
X425069Y341623D01*
X426713Y339979D01*
X428860Y339090D01*
X431103D01*
X435261Y334931D01*
X436354Y334202D01*
X437642Y333945D01*
X442976D01*
X444264Y334202D01*
X445357Y334931D01*
X475612Y365187D01*
X483362D01*
Y281243D01*
X465452D01*
X440311Y306384D01*
X440436Y306686D01*
Y309010D01*
X439547Y311157D01*
X437903Y312801D01*
X435756Y313690D01*
X433432D01*
X431285Y312801D01*
X429641Y311157D01*
X428752Y309010D01*
Y306686D01*
X429641Y304539D01*
X431285Y302895D01*
X433432Y302006D01*
X435167D01*
X461677Y275495D01*
X462770Y274766D01*
X464058Y274509D01*
X483362D01*
Y113284D01*
X483362D01*
X483470Y111093D01*
X484324Y106796D01*
X486001Y102747D01*
X488436Y99104D01*
X491534Y96006D01*
X495177Y93571D01*
X499226Y91895D01*
X503523Y91040D01*
X505714Y90932D01*
X1177035Y90931D01*
X1177036Y90931D01*
X1177036Y90931D01*
X1177037Y90931D01*
X1179346Y90519D01*
X1180164Y90180D01*
X1181245Y89458D01*
X1182166Y88538D01*
X1182888Y87456D01*
X1183386Y86254D01*
X1183640Y84978D01*
X1183640Y84328D01*
X1183640Y57404D01*
X1183640Y57404D01*
X1183640Y56242D01*
X1182750Y54095D01*
X1181107Y52451D01*
X1178960Y51562D01*
X1177798Y51562D01*
X159258Y51562D01*
X157044Y51562D01*
X152653Y52140D01*
X148376Y53286D01*
X144284Y54981D01*
X140449Y57195D01*
X136936Y59891D01*
X133805Y63022D01*
X131109Y66535D01*
X128895Y70370D01*
X127200Y74462D01*
X126054Y78739D01*
X125476Y83130D01*
Y85344D01*
Y768350D01*
Y769701D01*
X126003Y772351D01*
X127037Y774847D01*
X128538Y777093D01*
X130449Y779004D01*
X132695Y780505D01*
X135191Y781539D01*
X137841Y782066D01*
X250190D01*
X251410Y782126D01*
X253803Y782602D01*
X256057Y783536D01*
X258086Y784891D01*
X259811Y786616D01*
X261166Y788645D01*
X262100Y790899D01*
X262576Y793292D01*
X262636Y794512D01*
Y878586D01*
X262636D01*
X262636Y878586D01*
X262636Y878587D01*
X262514Y879825D01*
X262069Y880898D01*
X261566Y882114D01*
X259814Y883866D01*
X257525Y884814D01*
X256286Y884936D01*
X133350Y884936D01*
X132574Y884936D01*
X131053Y885238D01*
X129620Y885832D01*
X128330Y886694D01*
X127234Y887791D01*
X126372Y889080D01*
X125779Y890513D01*
X125476Y892034D01*
X125476Y892810D01*
Y940805D01*
X125769Y942277D01*
X126343Y943663D01*
X127177Y944911D01*
X128238Y945973D01*
X129487Y946807D01*
X130873Y947381D01*
X132346Y947674D01*
X1221232D01*
X1221232Y947674D01*
D02*
G37*
G36*
X948436Y818134D02*
D01*
X950873Y817773D01*
X952166Y817238D01*
X953455Y816376D01*
X954552Y815279D01*
X955414Y813990D01*
X956007Y812557D01*
X956310Y811036D01*
Y810260D01*
X956310Y732790D01*
Y731789D01*
X955920Y729826D01*
X955154Y727977D01*
X954042Y726313D01*
X952627Y724898D01*
X950963Y723786D01*
X949113Y723020D01*
X947151Y722630D01*
X798830D01*
X798830Y722630D01*
X797909Y722585D01*
X796102Y722225D01*
X794400Y721520D01*
X792868Y720497D01*
X791565Y719194D01*
X790542Y717662D01*
X789837Y715960D01*
X789477Y714153D01*
X789432Y713232D01*
X789432Y515620D01*
X789494Y514356D01*
X789987Y511878D01*
X790954Y509543D01*
X792358Y507442D01*
X794145Y505656D01*
X796246Y504252D01*
X798580Y503285D01*
X801059Y502792D01*
X802322Y502730D01*
X835237D01*
X837756Y502730D01*
X837756Y502730D01*
Y502730D01*
X837756Y502730D01*
X838994Y502791D01*
X840131Y503017D01*
X841424Y503274D01*
X843712Y504222D01*
X845772Y505598D01*
X847524Y507350D01*
X848900Y509409D01*
X849848Y511698D01*
X850331Y514127D01*
X850392Y515366D01*
X850392Y576580D01*
X850392Y576580D01*
X850392Y576580D01*
X850921Y578868D01*
X851165Y579458D01*
X852594Y580887D01*
X854462Y581660D01*
X855472Y581660D01*
X870965Y581660D01*
X870966Y581660D01*
X870966Y581660D01*
X870967D01*
X873250Y581111D01*
X873699Y580925D01*
X875057Y579568D01*
X875792Y577794D01*
X875792Y576834D01*
X875792Y514604D01*
X875849Y513440D01*
X876303Y511157D01*
X877194Y509006D01*
X878487Y507071D01*
X880133Y505425D01*
X882069Y504132D01*
X884219Y503241D01*
X886502Y502787D01*
X887666Y502730D01*
X961579Y502730D01*
X961579Y502729D01*
X961580Y502729D01*
X961589D01*
X963929Y502512D01*
X965303Y502239D01*
X967626Y501277D01*
X969716Y499880D01*
X971494Y498102D01*
X972891Y496012D01*
X973853Y493689D01*
X974344Y491223D01*
X974344Y489966D01*
X974344Y468122D01*
X974419Y466603D01*
X975011Y463624D01*
X976173Y460818D01*
X977861Y458292D01*
X980009Y456144D01*
X982534Y454457D01*
X985340Y453295D01*
X988319Y452702D01*
X989838Y452628D01*
X1583182Y452628D01*
X1610868Y424942D01*
X1647190D01*
X1648181Y425040D01*
X1650012Y425798D01*
X1651414Y427200D01*
X1652172Y429031D01*
X1652270Y430022D01*
Y488695D01*
X1652270Y489403D01*
X1652811Y490710D01*
X1653811Y491711D01*
X1655119Y492252D01*
X1655826Y492252D01*
X1669450Y492252D01*
X1671827Y492251D01*
X1671827D01*
X1674082Y491575D01*
X1675058Y490600D01*
X1675638Y489200D01*
X1675638Y488442D01*
X1675638Y430020D01*
X1675736Y429030D01*
X1676494Y427199D01*
X1677896Y425797D01*
X1679727Y425039D01*
X1680718Y424942D01*
X1704848D01*
Y424942D01*
X1705839Y425040D01*
X1707670Y425798D01*
X1709072Y427200D01*
X1709830Y429031D01*
X1709928Y430022D01*
Y438911D01*
X1709928Y439661D01*
X1710220Y441134D01*
X1710794Y442521D01*
X1711628Y443769D01*
X1712690Y444831D01*
X1713938Y445665D01*
X1715325Y446239D01*
X1716797Y446532D01*
X1717548Y446532D01*
X1813558Y446532D01*
X1813559Y446530D01*
X1813559Y446530D01*
X1813577D01*
X1815910Y446302D01*
X1817115Y446063D01*
X1819334Y445144D01*
X1821331Y443810D01*
X1823030Y442112D01*
X1824364Y440115D01*
X1825283Y437896D01*
X1825752Y435541D01*
X1825752Y434340D01*
X1825752Y363474D01*
X1825750Y363472D01*
Y362572D01*
X1825399Y360806D01*
X1824710Y359142D01*
X1823709Y357644D01*
X1822436Y356371D01*
X1820939Y355370D01*
X1819275Y354681D01*
X1817508Y354330D01*
X1816608Y354330D01*
X1715007Y354330D01*
X1713996Y354330D01*
X1712129Y355103D01*
X1710701Y356533D01*
X1709928Y358400D01*
X1709928Y359410D01*
Y370078D01*
X1709928Y370078D01*
X1709928Y370078D01*
X1709928Y370079D01*
X1709840Y370970D01*
X1709158Y372618D01*
X1707896Y373880D01*
X1706248Y374562D01*
X1705356Y374650D01*
X1600454Y374650D01*
X1575054Y400050D01*
X1440942D01*
X1440942Y400050D01*
X1440199Y399977D01*
X1438825Y399408D01*
X1437774Y398357D01*
X1437205Y396983D01*
X1437132Y396240D01*
Y351790D01*
X1437132Y351790D01*
X1437132Y350678D01*
X1436281Y348625D01*
X1434709Y347053D01*
X1432655Y346202D01*
X1431544Y346202D01*
X1416208Y346202D01*
X1414154Y347053D01*
X1412583Y348624D01*
X1411732Y350678D01*
Y351789D01*
Y396748D01*
X1411732Y396748D01*
X1411732Y396748D01*
X1411732Y396749D01*
X1411692Y397570D01*
X1411371Y399181D01*
X1410742Y400699D01*
X1409830Y402066D01*
X1408668Y403228D01*
X1407301Y404140D01*
X1405783Y404769D01*
X1404172Y405090D01*
X1403350Y405130D01*
X997712Y405130D01*
X997712Y405130D01*
X995421Y405017D01*
X990928Y404124D01*
X986696Y402371D01*
X982887Y399826D01*
X979648Y396586D01*
X977103Y392777D01*
X975350Y388545D01*
X974456Y384052D01*
X974344Y381762D01*
Y168402D01*
X974344Y168402D01*
X974344Y167442D01*
X973609Y165668D01*
X972252Y164311D01*
X970478Y163576D01*
X711708D01*
X710832Y163576D01*
X709115Y163918D01*
X707497Y164588D01*
X706041Y165561D01*
X704802Y166799D01*
X703830Y168255D01*
X703159Y169873D01*
X702818Y171590D01*
X702818Y172466D01*
Y454152D01*
X702818Y454923D01*
X703119Y456435D01*
X703709Y457860D01*
X704565Y459142D01*
X705656Y460233D01*
X706938Y461089D01*
X708363Y461679D01*
X709875Y461980D01*
X710646Y461980D01*
X728172Y461980D01*
X730712Y461980D01*
X730712Y461980D01*
X731402Y462014D01*
X732755Y462283D01*
X732755Y462283D01*
X733072Y462414D01*
X734030Y462811D01*
X735177Y463577D01*
X736153Y464553D01*
X736919Y465700D01*
X737447Y466975D01*
X737716Y468328D01*
X737750Y469018D01*
X737750Y803790D01*
X737750Y803790D01*
X737750Y803790D01*
X737957Y806244D01*
X738301Y807974D01*
X739382Y810584D01*
X740952Y812934D01*
X742950Y814932D01*
X745300Y816501D01*
X747910Y817583D01*
X750681Y818134D01*
X752094Y818134D01*
X946068Y818134D01*
X948436Y818134D01*
D02*
G37*
G36*
X1204910Y816864D02*
X1207262Y816864D01*
D01*
X1209631Y816385D01*
X1210715Y815936D01*
X1212430Y814221D01*
X1213358Y811981D01*
X1213358Y810768D01*
X1213358Y778510D01*
X1213358Y778510D01*
X1213358Y777752D01*
X1212778Y776352D01*
X1211706Y775280D01*
X1210306Y774700D01*
X1125728D01*
X1054100Y703072D01*
Y654304D01*
X1054149Y653308D01*
X1054537Y651354D01*
X1055300Y649514D01*
X1056406Y647858D01*
X1057814Y646450D01*
X1059471Y645343D01*
X1061311Y644581D01*
X1063264Y644193D01*
X1064260Y644144D01*
X1144270Y644144D01*
X1147064Y646938D01*
X1191768D01*
X1250696Y705866D01*
X1279398D01*
X1280091Y705934D01*
X1281373Y706465D01*
X1282355Y707446D01*
X1282886Y708728D01*
X1282954Y709422D01*
X1282954Y751332D01*
X1282954D01*
Y751332D01*
X1282954Y751333D01*
X1283862Y753502D01*
X1284275Y753916D01*
X1285396Y754380D01*
X1286002Y754380D01*
X1313349Y754380D01*
X1315720Y754379D01*
D01*
X1317935Y753322D01*
X1318089Y753169D01*
X1318514Y752142D01*
X1318514Y751586D01*
X1318514Y709422D01*
X1318582Y708728D01*
X1319113Y707446D01*
X1320094Y706465D01*
X1321376Y705934D01*
X1322070Y705866D01*
X1392936D01*
X1455928Y768858D01*
X1704594D01*
X1705634Y768960D01*
X1707557Y769756D01*
X1709029Y771228D01*
X1709826Y773151D01*
X1709928Y774192D01*
X1709928Y784036D01*
X1710201Y785411D01*
X1710737Y786705D01*
X1711516Y787870D01*
X1712506Y788860D01*
X1713671Y789639D01*
X1714966Y790175D01*
X1716340Y790448D01*
X1819401D01*
X1819402Y790447D01*
X1819402Y790447D01*
X1819406D01*
X1821709Y790015D01*
X1822999Y789481D01*
X1824785Y787695D01*
X1825752Y785361D01*
X1825752Y784098D01*
X1825752Y703326D01*
X1825751Y703325D01*
X1825751Y702062D01*
X1824785Y699729D01*
X1822999Y697943D01*
X1820665Y696976D01*
X1819402Y696976D01*
X1715769Y696976D01*
X1714607Y696976D01*
X1712460Y697865D01*
X1710817Y699509D01*
X1709928Y701656D01*
X1709928Y702818D01*
Y712216D01*
X1709928Y712216D01*
X1709928Y712216D01*
X1709928Y712216D01*
X1709806Y713455D01*
X1709375Y714497D01*
X1708858Y715744D01*
X1707106Y717496D01*
X1704817Y718444D01*
X1703578Y718566D01*
X1478534Y718566D01*
X1415796Y655828D01*
X1271524D01*
X1212342Y596646D01*
X1147318D01*
X1144524Y599440D01*
X1028738D01*
X1023831Y600416D01*
X1019209Y602331D01*
X1015048Y605111D01*
X1011510Y608648D01*
X1008731Y612809D01*
X1006816Y617431D01*
X1005840Y622338D01*
Y624840D01*
Y741934D01*
X1080770Y816864D01*
X1204910Y816864D01*
D02*
G37*
G36*
X1150620Y381254D02*
X1268476D01*
X1391666Y258064D01*
X1704848D01*
X1705839Y258161D01*
X1707670Y258920D01*
X1709072Y260321D01*
X1709830Y262153D01*
X1709928Y263144D01*
X1709928Y270763D01*
X1709928Y270763D01*
X1710114Y272230D01*
X1710234Y273177D01*
X1710269Y273357D01*
X1710939Y274975D01*
X1711912Y276431D01*
X1713151Y277669D01*
X1714607Y278642D01*
X1716225Y279312D01*
X1717942Y279654D01*
X1718818Y279654D01*
X1816607Y279654D01*
X1816608Y279653D01*
X1816608Y279653D01*
X1816613D01*
X1818944Y279368D01*
X1819275Y279302D01*
X1820939Y278613D01*
X1822437Y277612D01*
X1823710Y276339D01*
X1824711Y274841D01*
X1825401Y273177D01*
X1825752Y271411D01*
X1825752Y270510D01*
X1825752Y196088D01*
X1825751Y196087D01*
X1825751Y195112D01*
X1825371Y193198D01*
X1824624Y191395D01*
X1823540Y189773D01*
X1822160Y188393D01*
X1820538Y187309D01*
X1818735Y186563D01*
X1816822Y186182D01*
X1717040D01*
X1716340Y186182D01*
X1714966Y186455D01*
X1713671Y186991D01*
X1712506Y187770D01*
X1711516Y188760D01*
X1710737Y189925D01*
X1710201Y191220D01*
X1709928Y192593D01*
Y203454D01*
X1709928Y203454D01*
X1709928Y203454D01*
X1709928Y203455D01*
X1709845Y204296D01*
X1709200Y205853D01*
X1708009Y207044D01*
X1706452Y207689D01*
X1705610Y207772D01*
X1361186Y207772D01*
X1361186Y207772D01*
X1359767Y207702D01*
X1356983Y207148D01*
X1354361Y206062D01*
X1352001Y204485D01*
X1349994Y202479D01*
X1348418Y200119D01*
X1347331Y197497D01*
X1346778Y194713D01*
X1346708Y193294D01*
X1346708Y174567D01*
X1346239Y172212D01*
X1345320Y169993D01*
X1343986Y167996D01*
X1342288Y166298D01*
X1340291Y164964D01*
X1338072Y164044D01*
X1335717Y163576D01*
X1012444D01*
X1011368Y163576D01*
X1009258Y163996D01*
X1007271Y164819D01*
X1005482Y166014D01*
X1003960Y167536D01*
X1002765Y169324D01*
X1001942Y171312D01*
X1001522Y173422D01*
Y174498D01*
Y370840D01*
X1001522Y370840D01*
X1001522Y370840D01*
X1001667Y373320D01*
X1002205Y376026D01*
X1003546Y379262D01*
X1005491Y382174D01*
X1007968Y384651D01*
X1010880Y386596D01*
X1014116Y387937D01*
X1017551Y388620D01*
X1019302Y388620D01*
X1093470Y388620D01*
X1096264Y391414D01*
X1140460D01*
X1150620Y381254D01*
D02*
G37*
%LPC*%
G36*
X152818Y768016D02*
X150966D01*
X149178Y767537D01*
X147574Y766611D01*
X146265Y765302D01*
X145339Y763698D01*
X144860Y761910D01*
Y760058D01*
X145339Y758270D01*
X146265Y756666D01*
X147574Y755357D01*
X149178Y754431D01*
X150966Y753952D01*
X152818D01*
X154606Y754431D01*
X156210Y755357D01*
X157519Y756666D01*
X158445Y758270D01*
X158924Y760058D01*
Y761910D01*
X158445Y763698D01*
X157519Y765302D01*
X156210Y766611D01*
X154606Y767537D01*
X152818Y768016D01*
D02*
G37*
G36*
Y742616D02*
X150966D01*
X149178Y742137D01*
X147574Y741211D01*
X146265Y739902D01*
X145339Y738298D01*
X144860Y736510D01*
Y734658D01*
X145339Y732870D01*
X146265Y731266D01*
X147574Y729957D01*
X149178Y729031D01*
X150966Y728552D01*
X152818D01*
X154606Y729031D01*
X156210Y729957D01*
X157519Y731266D01*
X158445Y732870D01*
X158924Y734658D01*
Y736510D01*
X158445Y738298D01*
X157519Y739902D01*
X156210Y741211D01*
X154606Y742137D01*
X152818Y742616D01*
D02*
G37*
G36*
Y691816D02*
X150966D01*
X149178Y691337D01*
X147574Y690411D01*
X146265Y689102D01*
X145339Y687498D01*
X144860Y685710D01*
Y683858D01*
X145339Y682070D01*
X146265Y680466D01*
X147574Y679157D01*
X149178Y678231D01*
X150966Y677752D01*
X152818D01*
X154606Y678231D01*
X156210Y679157D01*
X157519Y680466D01*
X158445Y682070D01*
X158924Y683858D01*
Y685710D01*
X158445Y687498D01*
X157519Y689102D01*
X156210Y690411D01*
X154606Y691337D01*
X152818Y691816D01*
D02*
G37*
G36*
X322472Y659130D02*
X320148D01*
X318001Y658241D01*
X316357Y656597D01*
X315468Y654450D01*
Y652126D01*
X316357Y649979D01*
X318001Y648335D01*
X320148Y647446D01*
X322472D01*
X324619Y648335D01*
X325951Y649667D01*
X455976D01*
X456057Y649471D01*
X457701Y647827D01*
X459848Y646938D01*
X462172D01*
X464319Y647827D01*
X465963Y649471D01*
X466852Y651618D01*
Y653942D01*
X465963Y656089D01*
X464319Y657733D01*
X462172Y658622D01*
X459848D01*
X457701Y657733D01*
X456369Y656401D01*
X326344D01*
X326263Y656597D01*
X324619Y658241D01*
X322472Y659130D01*
D02*
G37*
G36*
X205564Y671195D02*
X201852D01*
X198267Y670234D01*
X195052Y668378D01*
X192428Y665754D01*
X190572Y662539D01*
X189611Y658954D01*
Y655242D01*
X190572Y651657D01*
X192428Y648442D01*
X195052Y645818D01*
X198267Y643962D01*
X201852Y643001D01*
X205564D01*
X209149Y643962D01*
X212364Y645818D01*
X214988Y648442D01*
X216844Y651657D01*
X217805Y655242D01*
Y658954D01*
X216844Y662539D01*
X214988Y665754D01*
X212364Y668378D01*
X209149Y670234D01*
X205564Y671195D01*
D02*
G37*
G36*
X152818Y640000D02*
X150966D01*
X149178Y639521D01*
X147574Y638595D01*
X146265Y637286D01*
X145339Y635682D01*
X144860Y633894D01*
Y632042D01*
X145339Y630254D01*
X146265Y628650D01*
X147574Y627341D01*
X149178Y626415D01*
X150966Y625936D01*
X152818D01*
X154606Y626415D01*
X156210Y627341D01*
X157519Y628650D01*
X158445Y630254D01*
X158924Y632042D01*
Y633894D01*
X158445Y635682D01*
X157519Y637286D01*
X156210Y638595D01*
X154606Y639521D01*
X152818Y640000D01*
D02*
G37*
G36*
X400450Y639572D02*
X398126D01*
X395979Y638683D01*
X394335Y637039D01*
X393446Y634892D01*
Y632568D01*
X394335Y630421D01*
X395921Y628835D01*
Y626488D01*
X377574Y608141D01*
X364305D01*
X362719Y609727D01*
X360572Y610616D01*
X358248D01*
X356681Y609967D01*
X354838Y610778D01*
X354141Y611359D01*
Y618177D01*
X354591Y618363D01*
X356235Y620007D01*
X357124Y622154D01*
Y624478D01*
X356235Y626625D01*
X354591Y628269D01*
X352444Y629158D01*
X350120D01*
X347973Y628269D01*
X346329Y626625D01*
X345440Y624478D01*
Y622154D01*
X346329Y620007D01*
X347407Y618929D01*
Y598388D01*
X347664Y597099D01*
X348393Y596007D01*
X354707Y589693D01*
X355799Y588964D01*
X357088Y588707D01*
X379730D01*
X381018Y588964D01*
X382111Y589693D01*
X389253Y596835D01*
X391853D01*
X392931Y595757D01*
X395078Y594868D01*
X397402D01*
X399549Y595757D01*
X401193Y597401D01*
X402082Y599548D01*
Y601872D01*
X401193Y604019D01*
X399549Y605663D01*
X397402Y606552D01*
X395078D01*
X392931Y605663D01*
X391287Y604019D01*
X391101Y603569D01*
X387858D01*
X386570Y603312D01*
X385477Y602583D01*
X378335Y595441D01*
X359490D01*
X358757Y596392D01*
X360007Y598932D01*
X360572D01*
X362719Y599821D01*
X364305Y601407D01*
X378968D01*
X380256Y601664D01*
X381349Y602393D01*
X401669Y622713D01*
X402398Y623806D01*
X402655Y625094D01*
Y628835D01*
X404241Y630421D01*
X405130Y632568D01*
Y634892D01*
X404241Y637039D01*
X402597Y638683D01*
X400450Y639572D01*
D02*
G37*
G36*
X152818Y614600D02*
X150966D01*
X149178Y614121D01*
X147574Y613195D01*
X146265Y611886D01*
X145339Y610282D01*
X144860Y608494D01*
Y606642D01*
X145339Y604854D01*
X146265Y603250D01*
X147574Y601941D01*
X149178Y601015D01*
X150966Y600536D01*
X152818D01*
X154606Y601015D01*
X156210Y601941D01*
X157519Y603250D01*
X158445Y604854D01*
X158924Y606642D01*
Y608494D01*
X158445Y610282D01*
X157519Y611886D01*
X156210Y613195D01*
X154606Y614121D01*
X152818Y614600D01*
D02*
G37*
G36*
X259988Y600710D02*
X257664D01*
X255517Y599821D01*
X253873Y598177D01*
X252984Y596030D01*
Y593706D01*
X253873Y591559D01*
X255517Y589915D01*
X257664Y589026D01*
X259988D01*
X262135Y589915D01*
X263571Y591351D01*
X291373D01*
X292959Y589765D01*
X295106Y588876D01*
X297430D01*
X299577Y589765D01*
X301221Y591409D01*
X302110Y593556D01*
Y595880D01*
X301221Y598027D01*
X299577Y599671D01*
X297430Y600560D01*
X295106D01*
X292959Y599671D01*
X291373Y598085D01*
X263817D01*
X263779Y598177D01*
X262135Y599821D01*
X259988Y600710D01*
D02*
G37*
G36*
X152818Y563800D02*
X150966D01*
X149178Y563321D01*
X147574Y562395D01*
X146265Y561086D01*
X145339Y559482D01*
X144860Y557694D01*
Y555842D01*
X145339Y554054D01*
X146265Y552450D01*
X147574Y551141D01*
X149178Y550215D01*
X150966Y549736D01*
X152818D01*
X154606Y550215D01*
X156210Y551141D01*
X157519Y552450D01*
X158445Y554054D01*
X158924Y555842D01*
Y557694D01*
X158445Y559482D01*
X157519Y561086D01*
X156210Y562395D01*
X154606Y563321D01*
X152818Y563800D01*
D02*
G37*
G36*
X205564Y533019D02*
X201852D01*
X198267Y532058D01*
X195052Y530202D01*
X192428Y527578D01*
X190572Y524363D01*
X189611Y520778D01*
Y517066D01*
X190572Y513481D01*
X192428Y510266D01*
X195052Y507642D01*
X198267Y505786D01*
X201852Y504825D01*
X205564D01*
X209149Y505786D01*
X212364Y507642D01*
X214988Y510266D01*
X216844Y513481D01*
X217805Y517066D01*
Y520778D01*
X216844Y524363D01*
X214988Y527578D01*
X212364Y530202D01*
X209149Y532058D01*
X205564Y533019D01*
D02*
G37*
G36*
X152818Y456612D02*
X150966D01*
X149178Y456133D01*
X147574Y455207D01*
X146265Y453898D01*
X145339Y452294D01*
X144860Y450506D01*
Y448654D01*
X145339Y446866D01*
X146265Y445262D01*
X147574Y443953D01*
X149178Y443027D01*
X150966Y442548D01*
X152818D01*
X154606Y443027D01*
X156210Y443953D01*
X157519Y445262D01*
X158445Y446866D01*
X158924Y448654D01*
Y450506D01*
X158445Y452294D01*
X157519Y453898D01*
X156210Y455207D01*
X154606Y456133D01*
X152818Y456612D01*
D02*
G37*
G36*
Y431212D02*
X150966D01*
X149178Y430733D01*
X147574Y429807D01*
X146265Y428498D01*
X145339Y426894D01*
X144860Y425106D01*
Y423254D01*
X145339Y421466D01*
X146265Y419862D01*
X147574Y418553D01*
X149178Y417627D01*
X150966Y417148D01*
X152818D01*
X154606Y417627D01*
X156210Y418553D01*
X157519Y419862D01*
X158445Y421466D01*
X158924Y423254D01*
Y425106D01*
X158445Y426894D01*
X157519Y428498D01*
X156210Y429807D01*
X154606Y430733D01*
X152818Y431212D01*
D02*
G37*
G36*
Y380412D02*
X150966D01*
X149178Y379933D01*
X147574Y379007D01*
X146265Y377698D01*
X145339Y376094D01*
X144860Y374306D01*
Y372454D01*
X145339Y370666D01*
X146265Y369062D01*
X147574Y367753D01*
X149178Y366827D01*
X150966Y366348D01*
X152818D01*
X154606Y366827D01*
X156210Y367753D01*
X157519Y369062D01*
X158445Y370666D01*
X158924Y372454D01*
Y374306D01*
X158445Y376094D01*
X157519Y377698D01*
X156210Y379007D01*
X154606Y379933D01*
X152818Y380412D01*
D02*
G37*
G36*
X329584Y417830D02*
X327260D01*
X325113Y416941D01*
X323469Y415297D01*
X322580Y413150D01*
Y410826D01*
X323469Y408679D01*
X325113Y407035D01*
X327260Y406146D01*
X328487D01*
X342043Y392589D01*
X343136Y391860D01*
X344424Y391603D01*
X424818D01*
X445262Y371159D01*
Y368916D01*
X446151Y366769D01*
X447795Y365125D01*
X449942Y364236D01*
X452266D01*
X454413Y365125D01*
X456057Y366769D01*
X456946Y368916D01*
Y371240D01*
X456057Y373387D01*
X454413Y375031D01*
X452266Y375920D01*
X450023D01*
X428593Y397351D01*
X427500Y398080D01*
X426212Y398337D01*
X345818D01*
X333990Y410165D01*
X334264Y410826D01*
Y413150D01*
X333375Y415297D01*
X331731Y416941D01*
X329584Y417830D01*
D02*
G37*
G36*
X398926Y387096D02*
X396602D01*
X394455Y386207D01*
X392811Y384563D01*
X391922Y382416D01*
Y380092D01*
X392811Y377945D01*
X394397Y376359D01*
Y372489D01*
X379352Y357443D01*
X362527D01*
X360941Y359029D01*
X358794Y359918D01*
X356470D01*
X354323Y359029D01*
X352679Y357385D01*
X351790Y355238D01*
Y352914D01*
X352679Y350767D01*
X354323Y349123D01*
X356470Y348234D01*
X358794D01*
X360941Y349123D01*
X362527Y350709D01*
X380746D01*
X382034Y350966D01*
X383127Y351695D01*
X400145Y368713D01*
X400874Y369806D01*
X401131Y371094D01*
Y376359D01*
X402717Y377945D01*
X403606Y380092D01*
Y382416D01*
X402717Y384563D01*
X401073Y386207D01*
X398926Y387096D01*
D02*
G37*
G36*
X410102Y372364D02*
X407778D01*
X405631Y371475D01*
X403987Y369831D01*
X403098Y367684D01*
Y365441D01*
X378590Y340933D01*
X366265D01*
X364888Y342309D01*
X362741Y343199D01*
X360417D01*
X358270Y342309D01*
X356627Y340666D01*
X355737Y338519D01*
Y336194D01*
X356627Y334047D01*
X358270Y332404D01*
X360417Y331515D01*
X362741D01*
X364888Y332404D01*
X366532Y334047D01*
X366595Y334199D01*
X379984D01*
X381272Y334456D01*
X382365Y335185D01*
X407859Y360680D01*
X410102D01*
X412249Y361569D01*
X413893Y363213D01*
X414782Y365360D01*
Y367684D01*
X413893Y369831D01*
X412249Y371475D01*
X410102Y372364D01*
D02*
G37*
G36*
X205564Y354711D02*
X201852D01*
X198267Y353750D01*
X195052Y351894D01*
X192428Y349270D01*
X190572Y346055D01*
X189611Y342470D01*
Y338758D01*
X190572Y335173D01*
X192428Y331958D01*
X195052Y329334D01*
X198267Y327478D01*
X201852Y326517D01*
X205564D01*
X209149Y327478D01*
X212364Y329334D01*
X214988Y331958D01*
X216844Y335173D01*
X217805Y338758D01*
Y342470D01*
X216844Y346055D01*
X214988Y349270D01*
X212364Y351894D01*
X209149Y353750D01*
X205564Y354711D01*
D02*
G37*
G36*
X311804Y398526D02*
X309480D01*
X307333Y397637D01*
X305689Y395993D01*
X304800Y393846D01*
Y391522D01*
X305689Y389375D01*
X307275Y387789D01*
Y371094D01*
X307532Y369806D01*
X308261Y368713D01*
X356267Y320707D01*
X357360Y319978D01*
X358648Y319721D01*
X445701D01*
X447287Y318135D01*
X449434Y317246D01*
X451758D01*
X453905Y318135D01*
X455549Y319779D01*
X456438Y321926D01*
Y324250D01*
X455549Y326397D01*
X453905Y328041D01*
X451758Y328930D01*
X449434D01*
X447287Y328041D01*
X445701Y326455D01*
X360042D01*
X314009Y372489D01*
Y387789D01*
X315595Y389375D01*
X316484Y391522D01*
Y393846D01*
X315595Y395993D01*
X313951Y397637D01*
X311804Y398526D01*
D02*
G37*
G36*
X152818Y296338D02*
X150966D01*
X149178Y295859D01*
X147574Y294933D01*
X146265Y293624D01*
X145339Y292020D01*
X144860Y290232D01*
Y288380D01*
X145339Y286592D01*
X146265Y284988D01*
X147574Y283679D01*
X149178Y282753D01*
X150966Y282274D01*
X152818D01*
X154606Y282753D01*
X156210Y283679D01*
X157519Y284988D01*
X158445Y286592D01*
X158924Y288380D01*
Y290232D01*
X158445Y292020D01*
X157519Y293624D01*
X156210Y294933D01*
X154606Y295859D01*
X152818Y296338D01*
D02*
G37*
G36*
X344389Y319157D02*
X342065D01*
X339918Y318267D01*
X338275Y316624D01*
X337385Y314477D01*
Y312153D01*
X338275Y310006D01*
X339918Y308362D01*
X342065Y307473D01*
X344308D01*
X367396Y284385D01*
X368488Y283656D01*
X369776Y283399D01*
X424873D01*
X425951Y282321D01*
X428098Y281432D01*
X430422D01*
X432569Y282321D01*
X434213Y283965D01*
X435102Y286112D01*
Y288436D01*
X434213Y290583D01*
X432569Y292227D01*
X430422Y293116D01*
X428098D01*
X425951Y292227D01*
X424307Y290583D01*
X424121Y290133D01*
X371171D01*
X349069Y312234D01*
Y314477D01*
X348180Y316624D01*
X346536Y318267D01*
X344389Y319157D01*
D02*
G37*
G36*
X152818Y270938D02*
X150966D01*
X149178Y270459D01*
X147574Y269533D01*
X146265Y268224D01*
X145339Y266620D01*
X144860Y264832D01*
Y262980D01*
X145339Y261192D01*
X146265Y259588D01*
X147574Y258279D01*
X149178Y257353D01*
X150966Y256874D01*
X152818D01*
X154606Y257353D01*
X156210Y258279D01*
X157519Y259588D01*
X158445Y261192D01*
X158924Y262980D01*
Y264832D01*
X158445Y266620D01*
X157519Y268224D01*
X156210Y269533D01*
X154606Y270459D01*
X152818Y270938D01*
D02*
G37*
G36*
Y220138D02*
X150966D01*
X149178Y219659D01*
X147574Y218733D01*
X146265Y217424D01*
X145339Y215820D01*
X144860Y214032D01*
Y212180D01*
X145339Y210392D01*
X146265Y208788D01*
X147574Y207479D01*
X149178Y206553D01*
X150966Y206074D01*
X152818D01*
X154606Y206553D01*
X156210Y207479D01*
X157519Y208788D01*
X158445Y210392D01*
X158924Y212180D01*
Y214032D01*
X158445Y215820D01*
X157519Y217424D01*
X156210Y218733D01*
X154606Y219659D01*
X152818Y220138D01*
D02*
G37*
G36*
X206072Y192913D02*
X202360D01*
X198775Y191952D01*
X195560Y190096D01*
X192936Y187472D01*
X191080Y184257D01*
X190119Y180672D01*
Y176960D01*
X191080Y173375D01*
X192936Y170160D01*
X195560Y167536D01*
X198775Y165680D01*
X202360Y164719D01*
X206072D01*
X209657Y165680D01*
X212872Y167536D01*
X215496Y170160D01*
X217352Y173375D01*
X218313Y176960D01*
Y180672D01*
X217352Y184257D01*
X215496Y187472D01*
X212872Y190096D01*
X209657Y191952D01*
X206072Y192913D01*
D02*
G37*
G36*
X947420Y371094D02*
X759714D01*
Y287020D01*
X947420D01*
Y371094D01*
D02*
G37*
G36*
X1099820Y354584D02*
X1081024D01*
Y279654D01*
X1245362D01*
Y338582D01*
X1135634D01*
X1123442Y350774D01*
X1103630D01*
X1099820Y354584D01*
D02*
G37*
G36*
X1298702Y276707D02*
Y261112D01*
X1314297D01*
X1314292Y261161D01*
X1313167Y264872D01*
X1311339Y268291D01*
X1308879Y271289D01*
X1305881Y273749D01*
X1302462Y275577D01*
X1298751Y276702D01*
X1298702Y276707D01*
D02*
G37*
G36*
X1291082D02*
X1291033Y276702D01*
X1287322Y275577D01*
X1283903Y273749D01*
X1280905Y271289D01*
X1278445Y268291D01*
X1276617Y264872D01*
X1275492Y261161D01*
X1275487Y261112D01*
X1291082D01*
Y276707D01*
D02*
G37*
G36*
X1314297Y253492D02*
X1298702D01*
Y237897D01*
X1298751Y237902D01*
X1302462Y239027D01*
X1305881Y240855D01*
X1308879Y243315D01*
X1311339Y246313D01*
X1313167Y249732D01*
X1314292Y253443D01*
X1314297Y253492D01*
D02*
G37*
G36*
X1291082D02*
X1275487D01*
X1275492Y253443D01*
X1276617Y249732D01*
X1278445Y246313D01*
X1280905Y243315D01*
X1283903Y240855D01*
X1287322Y239027D01*
X1291033Y237902D01*
X1291082Y237897D01*
Y253492D01*
D02*
G37*
%LPD*%
D10*
X379984Y337566D02*
X408940Y366522D01*
X361789Y337566D02*
X379984D01*
X380746Y354076D02*
X397764Y371094D01*
Y381254D01*
X369776Y286766D02*
X428752D01*
X429260Y287274D01*
X343227Y313315D02*
X369776Y286766D01*
X434594Y307340D02*
Y307848D01*
Y307340D02*
X464058Y277876D01*
X429514Y584454D02*
X463817D01*
X466865Y587502D01*
X499793D01*
X430530Y603758D02*
X430784D01*
X439906Y612880D01*
Y618468D01*
X448564Y627126D01*
X387858Y600202D02*
X395732D01*
X357088Y592074D02*
X379730D01*
X387858Y600202D01*
X350774Y598388D02*
X357088Y592074D01*
X350774Y598388D02*
Y622808D01*
X359410Y604774D02*
X378968D01*
X399288Y625094D01*
X395732Y600202D02*
X396240Y600710D01*
X358648Y323088D02*
X450596D01*
X310642Y371094D02*
X358648Y323088D01*
X430022Y344932D02*
X437642Y337312D01*
X442976D01*
X474218Y368554D02*
X546100D01*
X442976Y337312D02*
X474218Y368554D01*
X310642Y371094D02*
Y392684D01*
X563372Y138938D02*
Y181102D01*
X563880Y181610D01*
X563372Y138938D02*
X602742Y99568D01*
X573786Y147066D02*
X603504Y117348D01*
X573786Y147066D02*
Y371348D01*
X521716Y627126D02*
X545859Y651269D01*
Y652005D01*
X523039Y565404D02*
X527611Y560832D01*
X545084D01*
X328422Y410972D02*
Y411988D01*
Y410972D02*
X344424Y394970D01*
X361579Y337357D02*
X361789Y337566D01*
X357632Y354076D02*
X380746D01*
X729944Y119126D02*
X855980D01*
X603504Y117348D02*
X728166D01*
X729944Y119126D01*
X1246632Y140970D02*
Y141732D01*
X1205230Y99568D02*
X1246632Y140970D01*
X602742Y99568D02*
X1205230D01*
X426212Y394970D02*
X451104Y370078D01*
X344424Y394970D02*
X426212D01*
X399288Y625094D02*
Y633730D01*
X460756Y653034D02*
X461010Y652780D01*
X321564Y653034D02*
X460756D01*
X321310Y653288D02*
X321564Y653034D01*
X258976Y594718D02*
X296268D01*
X1151128Y898906D02*
X1164082Y885952D01*
X645414Y898906D02*
X1151128D01*
X564896Y818388D02*
X645414Y898906D01*
X350774Y622808D02*
X351282Y623316D01*
X564896Y771906D02*
Y818388D01*
X685546Y887476D02*
X903224D01*
X608076Y810006D02*
X685546Y887476D01*
X608076Y770382D02*
Y810006D01*
X448564Y627126D02*
X521716D01*
X499793Y587502D02*
X500528Y586803D01*
X500528Y586803D02*
X523039Y565404D01*
X464058Y277876D02*
X545338D01*
D59*
X1721480Y426212D02*
D03*
X1808480D02*
D03*
Y375412D02*
D03*
X1721480D02*
D03*
Y258318D02*
D03*
Y207518D02*
D03*
X1808480D02*
D03*
Y258318D02*
D03*
Y549910D02*
D03*
X1721480D02*
D03*
X1808480Y600710D02*
D03*
X1721480D02*
D03*
X1808480Y718820D02*
D03*
Y769620D02*
D03*
X1721480D02*
D03*
Y718820D02*
D03*
X230510Y810514D02*
D03*
X143510D02*
D03*
X230510Y861314D02*
D03*
X143510D02*
D03*
D68*
X1514750Y510500D02*
D03*
X1334270D02*
D03*
X1424510Y560500D02*
D03*
Y360100D02*
D03*
D69*
X1113802Y371762D02*
D03*
Y621762D02*
D03*
Y481762D02*
D03*
X913802D02*
D03*
D70*
X1013802Y496762D02*
D03*
X886302Y686762D02*
D03*
Y306762D02*
D03*
X1141302D02*
D03*
Y686762D02*
D03*
D71*
X913802Y661762D02*
D03*
X1113802Y331762D02*
D03*
Y661762D02*
D03*
X913802Y331762D02*
D03*
D72*
X1201928Y686308D02*
D03*
X804418Y324358D02*
D03*
X755904Y669544D02*
D03*
X802132Y388112D02*
D03*
X1294892Y257302D02*
D03*
X834390Y672338D02*
D03*
X1300988Y734822D02*
D03*
X1201500Y309500D02*
D03*
X532638Y681990D02*
D03*
X530606Y732790D02*
D03*
X501904Y559054D02*
D03*
X203708Y518922D02*
D03*
Y657098D02*
D03*
X385826Y71628D02*
D03*
X337566D02*
D03*
X289306D02*
D03*
X241046D02*
D03*
X204216Y178816D02*
D03*
X588772Y689610D02*
D03*
X548132Y538988D02*
D03*
X600710Y545592D02*
D03*
X203708Y340614D02*
D03*
X534416Y197358D02*
D03*
X553974Y420116D02*
D03*
X598424Y257810D02*
D03*
X506222Y240284D02*
D03*
X511302Y390144D02*
D03*
X599694Y393446D02*
D03*
D73*
X863094Y568870D02*
D03*
X1165202D02*
D03*
D74*
X1664000Y481590D02*
D03*
Y565410D02*
D03*
D75*
X151892Y735584D02*
D03*
Y607568D02*
D03*
Y424180D02*
D03*
Y263906D02*
D03*
Y632968D02*
D03*
X74892Y556768D02*
D03*
Y632968D02*
D03*
X151892Y556768D02*
D03*
Y582168D02*
D03*
Y373380D02*
D03*
Y449580D02*
D03*
X74892Y373380D02*
D03*
Y449580D02*
D03*
X151892Y398780D02*
D03*
Y289306D02*
D03*
X74892Y213106D02*
D03*
Y289306D02*
D03*
X151892Y213106D02*
D03*
Y238506D02*
D03*
Y760984D02*
D03*
X74892Y684784D02*
D03*
Y760984D02*
D03*
X151892Y710184D02*
D03*
Y684784D02*
D03*
D76*
X408940Y366522D02*
D03*
X397764Y381254D02*
D03*
X429260Y287274D02*
D03*
X411988Y299974D02*
D03*
X434594Y307848D02*
D03*
X429514Y584454D02*
D03*
X430530Y603758D02*
D03*
X359410Y604774D02*
D03*
X450596Y323088D02*
D03*
X430022Y344932D02*
D03*
X854456Y204470D02*
D03*
X563880Y181610D02*
D03*
X545859Y652005D02*
D03*
X545084Y560832D02*
D03*
X240030Y618236D02*
D03*
X328422Y411988D02*
D03*
X361579Y337357D02*
D03*
X357632Y354076D02*
D03*
X855980Y119126D02*
D03*
X1246632Y141732D02*
D03*
X310642Y392684D02*
D03*
X358648Y415798D02*
D03*
X399288Y633730D02*
D03*
X461010Y652780D02*
D03*
X366014Y682752D02*
D03*
X321310Y653288D02*
D03*
X895858Y918464D02*
D03*
X166878Y571246D02*
D03*
X258826Y594868D02*
D03*
X1177798Y912876D02*
D03*
X1115060Y923544D02*
D03*
X1183652Y865511D02*
D03*
X915416Y918718D02*
D03*
X447040Y683260D02*
D03*
X1139444Y82296D02*
D03*
X970788Y80264D02*
D03*
X871728Y79756D02*
D03*
X689810Y79500D02*
D03*
X451612Y418338D02*
D03*
X404368Y565658D02*
D03*
X319024Y828040D02*
D03*
X262890Y694690D02*
D03*
X321818Y564896D02*
D03*
X164474Y700783D02*
D03*
X240538Y384556D02*
D03*
X321310Y293878D02*
D03*
X241300Y242570D02*
D03*
X166116Y386334D02*
D03*
X168402Y228600D02*
D03*
X351282Y623316D02*
D03*
X396240Y600710D02*
D03*
X564896Y771906D02*
D03*
X608076Y770382D02*
D03*
X1164082Y885952D02*
D03*
X903224Y887476D02*
D03*
X451104Y370078D02*
D03*
X343227Y313315D02*
D03*
X573786Y371348D02*
D03*
X546100Y368554D02*
D03*
X545338Y277876D02*
D03*
X296268Y594718D02*
D03*
D77*
X946912Y799592D02*
D03*
X837438Y809498D02*
D03*
X802894Y759460D02*
D03*
X849630Y240284D02*
D03*
X729488Y231140D02*
D03*
X965454Y173990D02*
D03*
X1120902Y212344D02*
D03*
X1248156Y173990D02*
D03*
X1097280Y251968D02*
D03*
X1010920Y230378D02*
D03*
X1204722Y799338D02*
D03*
X1095756Y808482D02*
D03*
X1064006Y758698D02*
D03*
X294894Y911352D02*
D03*
M02*
