M48
;Layer_Color=9474304
;FILE_FORMAT=4:4
METRIC,TZ
;TYPE=PLATED
T01F00S00C0.3810
T02F00S00C0.7000
T03F00S00C0.7112
T04F00S00C0.9000
T05F00S00C1.0000
T06F00S00C1.3970
T07F00S00C1.5000
T08F00S00C1.6002
T09F00S00C1.7998
;TYPE=NON_PLATED
T10F00S00C2.0000
T11F00S00C4.5999
%
T01
X170942Y228600
X243840Y242570
X323850Y293878
X345767Y313315
X364119Y337357
X360172Y354076
X313182Y392684
X243078Y384556
X168656Y386334
X400304Y381254
X411480Y366522
X432562Y344932
X437134Y307848
X431800Y287274
X414528Y299974
X453136Y323088
X453644Y370078
X548640Y368554
X576326Y371348
X547878Y277876
X566420Y181610
X692350Y79500
X874268Y79756
X858520Y119126
X856996Y204470
X973328Y80264
X1141984Y82296
X1249172Y141732
X454152Y418338
X432054Y584454
X433070Y603758
X398780Y600710
X401828Y633730
X406908Y565658
X463550Y652780
X449580Y683260
X548399Y652005
X547624Y560832
X567436Y771906
X610616Y770382
X368554Y682752
X323850Y653288
X353822Y623316
X361950Y604774
X298808Y594718
X261366Y594868
X242570Y618236
X265430Y694690
X167014Y700783
X169418Y571246
X324358Y564896
X330962Y411988
X361188Y415798
X321564Y828040
X905764Y887476
X898398Y918464
X917956Y918718
X1117600Y923544
X1180338Y912876
X1166622Y885952
X1186192Y865511
T02
X77432Y213106
Y289306
X154432
Y263906
Y238506
Y213106
Y373380
X77432
Y449580
X154432
Y424180
Y398780
Y556768
Y582168
Y607568
Y632968
Y684784
Y710184
Y735584
Y760984
X77432
Y684784
Y632968
Y556768
T03
X732028Y231140
X852170Y240284
X1013460Y230378
X967994Y173990
X1123442Y212344
X1099820Y251968
X1250696Y173990
X1066546Y758698
X805434Y759460
X297434Y911352
X839978Y809498
X949452Y799592
X1098296Y808482
X1207262Y799338
T04
X1666540Y481590
Y565410
T05
X865634Y568870
X1167742
T06
X1724020Y207518
Y258318
X1811020
Y207518
Y375412
X1724020
Y426212
X1811020
Y549910
Y600710
X1724020
Y549910
Y718820
Y769620
X1811020
Y718820
X233050Y810514
Y861314
X146050
Y810514
T07
X1427050Y360100
Y560500
X1517290Y510500
X1336810
T08
X243586Y71628
X291846
X340106
X388366
X206756Y178816
X206248Y340614
X513842Y390144
X602234Y393446
X600964Y257810
X508762Y240284
X536956Y197358
X806958Y324358
X804672Y388112
X1204040Y309500
X1297432Y257302
X1303528Y734822
X1204468Y686308
X836930Y672338
X758444Y669544
X591312Y689610
X535178Y681990
X533146Y732790
X504444Y559054
X550672Y538988
X603250Y545592
X556514Y420116
X206248Y518922
Y657098
T09
X916342Y331762
X1116342
Y371762
Y481762
Y621762
Y661762
X916342
Y481762
T10
X888842Y306762
X1143842
Y686762
X888842
T11
X1016342Y496762
M30
